<svg xmlns="http://www.w3.org/2000/svg" width="124.5" height="167.92" viewBox="0 0 124.5 167.92"><defs><linearGradient id="linear-gradient" x1="1.008" y1="-.092" x2="-.378" y2="1.215" gradientUnits="objectBoundingBox"><stop offset="0" stop-color="#009859"/><stop offset=".252" stop-color="#009658"/><stop offset=".343" stop-color="#009255"/><stop offset=".408" stop-color="#008a50"/><stop offset=".46" stop-color="#007f49"/><stop offset=".505" stop-color="#007140"/><stop offset=".545" stop-color="#006036"/><stop offset=".58" stop-color="#004d2b"/><stop offset=".601" stop-color="#004123"/></linearGradient><linearGradient id="linear-gradient-2" x1=".5" y1="-3.932" x2=".5" y2="4.388" gradientUnits="objectBoundingBox"><stop offset="0" stop-color="#009859"/><stop offset=".142" stop-color="#009456"/><stop offset=".318" stop-color="#008a50"/><stop offset=".514" stop-color="#007a45"/><stop offset=".723" stop-color="#006337"/><stop offset=".941" stop-color="#004827"/><stop offset="1" stop-color="#004123"/></linearGradient><linearGradient id="linear-gradient-3" x1="1.115" y1="-1.161" x2=".205" y2="1.149" gradientUnits="objectBoundingBox"><stop offset="0" stop-color="#009859"/><stop offset=".291" stop-color="#009658"/><stop offset=".455" stop-color="#009154"/><stop offset=".587" stop-color="#00884e"/><stop offset=".703" stop-color="#007b46"/><stop offset=".808" stop-color="#006b3c"/><stop offset=".904" stop-color="#005831"/><stop offset=".993" stop-color="#004224"/><stop offset="1" stop-color="#004123"/></linearGradient></defs><g id="logo-vila-2" transform="translate(-7.25 -4.03)"><g id="Grupo_31" data-name="Grupo 31"><path id="Caminho_142" data-name="Caminho 142" d="M92.43 69.39a13.678 13.678 0 01-18.59-3.75.01.01 0 01-.01-.01c-.02-.02-.03-.03-.03-.05l-1.13-1.96c-.01-.01-.02-.02-.01-.03l-3.14-5.44-14.13-24.54c-.01-.01-.01-.02-.02-.03l-.82-1.42c-.04-.08-.09-.15-.14-.23-6.28-10.4-16.58-18.89-28.13-23.68A53.95 53.95 0 007.25 4.03l46.72 81.11 3.53 6.14.72 1.24a.219.219 0 00.03.05 13.5 13.5 0 0022.85-.4c.13-.21.25-.43.37-.64l3.64-6.31 8.22-14.27 3.15-5.47a13.85 13.85 0 01-4.05 3.91z" fill="url(#linear-gradient)"/><path id="Caminho_143" data-name="Caminho 143" d="M54.41 31.93c.05.08.1.15.14.23l.82 1.42c.01.01.01.02.02.03l14.13 24.53 2.41-4.19 3.23-5.61 1.33-2.32 1.25-2.16-5.31-9.21a.219.219 0 00-.03-.05l-2-3.48C63.62 20.41 52.53 11.82 40.3 7.4a53.392 53.392 0 00-16.37-3.25l2.36 4.09c11.54 4.8 21.85 13.29 28.12 23.69z" fill="url(#linear-gradient-2)"/><path id="Caminho_144" data-name="Caminho 144" d="M84.57 32l-.92 1.58c-.04.07-.08.15-.12.21l-5.8 10.08-1.25 2.16-1.33 2.32-3.23 5.61-2.41 4.19 3.14 5.44c-.01.01 0 .02.01.03l1.13 1.96c0 .02.01.03.03.05a.01.01 0 00.01.01 13.678 13.678 0 0018.59 3.75 13.487 13.487 0 004.04-3.92v-.01a13.382 13.382 0 001-1.71c0-.01.01-.02.02-.03L131.75 4.2c-18.52.51-37.59 11.92-47.18 27.8z" fill="url(#linear-gradient-3)"/></g><g id="Grupo_34" data-name="Grupo 34"><g id="Grupo_32" data-name="Grupo 32" fill="#717171"><path id="Caminho_145" data-name="Caminho 145" d="M34.65 163.86h3.11a4.726 4.726 0 011.71.3 3.912 3.912 0 011.34.84 3.8 3.8 0 01.87 1.26 3.86 3.86 0 01.31 1.57v.02a3.894 3.894 0 01-.31 1.57 3.736 3.736 0 01-.87 1.27 3.912 3.912 0 01-1.34.84 4.524 4.524 0 01-1.71.31h-3.11zm1.75 1.6v4.78h1.36a2.8 2.8 0 00.98-.17 1.956 1.956 0 00.76-.49 2.268 2.268 0 00.49-.75 2.487 2.487 0 00.18-.96v-.02a2.487 2.487 0 00-.18-.96 2.312 2.312 0 00-.49-.76 2.076 2.076 0 00-.76-.49 2.589 2.589 0 00-.98-.17H36.4z"/><path id="Caminho_146" data-name="Caminho 146" d="M43.56 163.86h6v1.56h-4.27v1.62h3.76v1.56h-3.76v1.67h4.33v1.56h-6.06z"/><path id="Caminho_147" data-name="Caminho 147" d="M54.03 171.95a5.27 5.27 0 01-1.79-.31 4.736 4.736 0 01-1.59-.96l1.04-1.24a5.248 5.248 0 001.12.71 3.053 3.053 0 001.26.26 1.571 1.571 0 00.85-.2.627.627 0 00.3-.55v-.02a.731.731 0 00-.06-.3.552.552 0 00-.24-.24 2.529 2.529 0 00-.49-.23c-.21-.08-.48-.15-.82-.24a10.2 10.2 0 01-1.09-.33 2.972 2.972 0 01-.83-.45 1.837 1.837 0 01-.53-.67 2.272 2.272 0 01-.19-.99v-.02a2.223 2.223 0 01.77-1.74 2.6 2.6 0 01.88-.49 3.67 3.67 0 011.13-.17 4.9 4.9 0 011.61.26 4.709 4.709 0 011.35.75l-.91 1.32a6.943 6.943 0 00-1.05-.58 2.672 2.672 0 00-1.03-.21 1.265 1.265 0 00-.77.2.612.612 0 00-.26.5v.02a.739.739 0 00.07.34.751.751 0 00.27.26 2.491 2.491 0 00.53.22c.22.07.51.15.85.24a9.745 9.745 0 011.08.36 2.982 2.982 0 01.8.48 1.756 1.756 0 01.49.66 2.223 2.223 0 01.17.9v.02a2.46 2.46 0 01-.21 1.05 1.988 1.988 0 01-.6.77 2.683 2.683 0 01-.92.48 4.915 4.915 0 01-1.19.14z"/><path id="Caminho_148" data-name="Caminho 148" d="M58.48 163.86h3.11a4.726 4.726 0 011.71.3 3.912 3.912 0 011.34.84 3.654 3.654 0 01.87 1.26 3.86 3.86 0 01.31 1.57v.02a3.894 3.894 0 01-.31 1.57 3.736 3.736 0 01-.87 1.27 4.01 4.01 0 01-1.34.84 4.524 4.524 0 01-1.71.31h-3.11zm1.76 1.6v4.78h1.36a2.8 2.8 0 00.98-.17 1.956 1.956 0 00.76-.49 2.268 2.268 0 00.49-.75 2.487 2.487 0 00.18-.96v-.02a2.487 2.487 0 00-.18-.96 2.312 2.312 0 00-.49-.76 2.076 2.076 0 00-.76-.49 2.589 2.589 0 00-.98-.17h-1.36z"/><path id="Caminho_149" data-name="Caminho 149" d="M67.39 163.86h6v1.56h-4.27v1.62h3.76v1.56h-3.76v1.67h4.33v1.56h-6.06v-7.97z"/><path id="Caminho_150" data-name="Caminho 150" d="M79.51 165.58l-1.39.34-.36-1.44 2.29-.68h1.2v8.03h-1.73v-6.25z"/><path id="Caminho_151" data-name="Caminho 151" d="M85.78 170.38a1.326 1.326 0 00.75-.19 1.627 1.627 0 00.48-.46 1.662 1.662 0 00.27-.59 3.446 3.446 0 00.11-.58 2.146 2.146 0 01-.71.4 2.85 2.85 0 01-.91.14 3.591 3.591 0 01-1.17-.18 2.641 2.641 0 01-.9-.51 2.268 2.268 0 01-.58-.81 2.847 2.847 0 01-.2-1.08v-.02a2.8 2.8 0 01.22-1.12 2.51 2.51 0 01.62-.88 2.9 2.9 0 01.96-.58 3.547 3.547 0 011.24-.21 5.082 5.082 0 01.72.05 3.288 3.288 0 01.6.15 2.492 2.492 0 01.51.27 4.042 4.042 0 01.47.39 3.229 3.229 0 01.39.49 3.821 3.821 0 01.3.64 4.424 4.424 0 01.19.83 6.676 6.676 0 01.07 1.05v.02a6.486 6.486 0 01-.23 1.77 3.9 3.9 0 01-.67 1.37 3.039 3.039 0 01-1.09.89 3.38 3.38 0 01-1.5.32 3.9 3.9 0 01-1.49-.26 4.472 4.472 0 01-1.13-.68l.92-1.33a3.728 3.728 0 00.83.52 2.337 2.337 0 00.93.18zm.28-2.72a1.388 1.388 0 001.01-.34 1.111 1.111 0 00.36-.85v-.02a1.134 1.134 0 00-.37-.88 1.465 1.465 0 00-1.04-.34 1.388 1.388 0 00-1.01.34 1.131 1.131 0 00-.35.87v.02a1.1 1.1 0 00.37.87 1.5 1.5 0 001.03.33z"/><path id="Caminho_152" data-name="Caminho 152" d="M94.37 170.12h-3.9l-.29-1.24 4.37-5.07h1.48v4.89h1.07v1.42h-1.07v1.72h-1.67v-1.72zm0-1.43v-2.48l-2.12 2.48z"/><path id="Caminho_153" data-name="Caminho 153" d="M101.27 171.95a4.065 4.065 0 01-1.23-.17 3.022 3.022 0 01-.97-.47 2.192 2.192 0 01-.64-.72 1.992 1.992 0 01-.23-.95v-.02a2.01 2.01 0 01.32-1.18 2.479 2.479 0 01.96-.75 2.344 2.344 0 01-.74-.69 1.859 1.859 0 01-.27-1.05v-.02a1.9 1.9 0 01.2-.85 2 2 0 01.57-.7 2.955 2.955 0 01.88-.47 3.754 3.754 0 011.15-.17 3.8 3.8 0 011.15.17 2.878 2.878 0 01.89.46 1.919 1.919 0 01.57.7 1.973 1.973 0 01.2.86v.02a1.859 1.859 0 01-.27 1.05 2.344 2.344 0 01-.74.69 2.782 2.782 0 01.94.75 1.75 1.75 0 01.34 1.13v.02a2.126 2.126 0 01-.23.99 2.38 2.38 0 01-.64.74 3.113 3.113 0 01-.97.46 4.178 4.178 0 01-1.24.17zm0-1.45a1.539 1.539 0 001.01-.29.863.863 0 00.36-.71v-.02a.812.812 0 00-.39-.72 2.015 2.015 0 00-1.98 0 .812.812 0 00-.39.72v.02a.872.872 0 00.36.7 1.579 1.579 0 001.03.3zm0-3.38a1.2 1.2 0 00.83-.27.87.87 0 00.31-.7v-.02a.88.88 0 00-.3-.65 1.169 1.169 0 00-.84-.28 1.153 1.153 0 00-.84.28.86.86 0 00-.3.64v.02a.884.884 0 00.31.7 1.176 1.176 0 00.83.28z"/></g><g id="Grupo_33" data-name="Grupo 33" fill="#020203"><path id="Caminho_154" data-name="Caminho 154" d="M28.22 137.76l1.15 7.57h.32l1.27-7.64 8.53-26.09h9.16L32.1 156.47h-6.24L9.19 111.6h10.12z"/><path id="Caminho_155" data-name="Caminho 155" d="M50.62 111.6h8.72v44.55h-8.72z"/><path id="Caminho_156" data-name="Caminho 156" d="M90.29 156.15H62.81V111.6h8.72v36.78H90.3v7.77z"/><path id="Caminho_157" data-name="Caminho 157" d="M117.08 146.28H103.4l-3.37 9.86h-8.72l16.04-44.87h6.43l16.04 44.87h-9.16zm-11.45-7h9.55l-3.31-9.93-1.34-7h-.32l-1.34 7.06z"/></g></g></g></svg>