<svg xmlns="http://www.w3.org/2000/svg" width="127.54" height="117.7" viewBox="0 0 127.54 117.7"><g id="logo-vila-pet" transform="translate(-5.73 -29.15)"><g id="Grupo_25" data-name="Grupo 25" fill="#717171"><path id="Caminho_120" data-name="Caminho 120" d="M44.43 146.85a2.812 2.812 0 01-1.13-.22 2.7 2.7 0 01-.9-.61 2.8 2.8 0 01-.59-.91 2.975 2.975 0 01-.21-1.12v-.02a2.887 2.887 0 01.21-1.11 2.8 2.8 0 01.59-.91 2.773 2.773 0 01.91-.62 2.942 2.942 0 011.17-.23 3.918 3.918 0 01.71.06 2.843 2.843 0 01.58.17 2.272 2.272 0 01.48.27 3.44 3.44 0 01.41.35l-.77.9a2.929 2.929 0 00-.66-.46 1.7 1.7 0 00-.76-.17 1.5 1.5 0 00-.64.14 1.457 1.457 0 00-.51.37 1.791 1.791 0 00-.33.55 1.853 1.853 0 00-.12.67v.02a1.853 1.853 0 00.12.67 1.68 1.68 0 00.33.55 1.621 1.621 0 00.51.38 1.546 1.546 0 00.65.14 1.753 1.753 0 00.8-.17 2.53 2.53 0 00.65-.48l.77.79a4.2 4.2 0 01-.44.41 2.326 2.326 0 01-.5.31 2.643 2.643 0 01-.6.2 2.769 2.769 0 01-.73.08z"/><path id="Caminho_121" data-name="Caminho 121" d="M47.67 141.21h2.53a2.188 2.188 0 011.61.56 1.705 1.705 0 01.47 1.27v.02a1.736 1.736 0 01-.33 1.1 1.932 1.932 0 01-.86.62l1.35 1.98h-1.42l-1.19-1.78h-.96v1.78h-1.22v-5.55zm2.46 2.69a1.017 1.017 0 00.69-.21.719.719 0 00.24-.57v-.02a.7.7 0 00-.25-.59 1.121 1.121 0 00-.7-.2H48.9v1.59h1.23z"/><path id="Caminho_122" data-name="Caminho 122" d="M53.39 141.21h4.17v1.09H54.6v1.13h2.61v1.09H54.6v1.16h3v1.09h-4.21z"/><path id="Caminho_123" data-name="Caminho 123" d="M58.69 141.21H60l1.45 2.35 1.45-2.35h1.31v5.55h-1.2v-3.62l-1.55 2.37h-.03l-1.54-2.35v3.6h-1.2z"/><path id="Caminho_124" data-name="Caminho 124" d="M67.45 141.16h1.12l2.37 5.59h-1.27l-.51-1.24h-2.34l-.51 1.24h-1.24zm1.28 3.27l-.74-1.8-.73 1.8z"/><path id="Caminho_125" data-name="Caminho 125" d="M73.08 142.33H71.4v-1.12h4.59v1.12H74.3v4.42h-1.22z"/><path id="Caminho_126" data-name="Caminho 126" d="M79.37 146.85a3.028 3.028 0 01-1.18-.23 2.835 2.835 0 01-.93-.61 2.924 2.924 0 01-.61-.9 2.969 2.969 0 01-.22-1.11v-.02a2.717 2.717 0 01.22-1.11 2.839 2.839 0 011.54-1.53 3.064 3.064 0 011.18-.23 3.028 3.028 0 011.18.23 2.835 2.835 0 01.93.61 2.924 2.924 0 01.61.9 2.75 2.75 0 01.22 1.11v.02a2.717 2.717 0 01-.22 1.11 2.969 2.969 0 01-.61.91 2.86 2.86 0 01-.93.62 3.064 3.064 0 01-1.18.23zm.01-1.13a1.639 1.639 0 00.67-.14 1.5 1.5 0 00.52-.37 1.64 1.64 0 00.34-.55 1.853 1.853 0 00.12-.67v-.02a1.853 1.853 0 00-.12-.67 1.569 1.569 0 00-.35-.55 1.835 1.835 0 00-.53-.38 1.7 1.7 0 00-1.35 0 1.5 1.5 0 00-.52.37 1.64 1.64 0 00-.34.55 1.853 1.853 0 00-.12.67v.02a1.853 1.853 0 00.12.67 1.569 1.569 0 00.35.55 1.835 1.835 0 00.53.38 1.535 1.535 0 00.68.14zm.46-6.28l1.04.45-1.08.79h-.92z"/><path id="Caminho_127" data-name="Caminho 127" d="M83.4 141.21h2.53a2.188 2.188 0 011.61.56 1.705 1.705 0 01.47 1.27v.02a1.736 1.736 0 01-.33 1.1 1.878 1.878 0 01-.86.62l1.35 1.98h-1.42l-1.19-1.78h-.96v1.78h-1.2zm2.45 2.69a1.017 1.017 0 00.69-.21.719.719 0 00.24-.57v-.02a.725.725 0 00-.25-.59 1.121 1.121 0 00-.7-.2h-1.21v1.59h1.23z"/><path id="Caminho_128" data-name="Caminho 128" d="M89.17 141.21h1.22v5.55h-1.22z"/><path id="Caminho_129" data-name="Caminho 129" d="M94.46 146.85a3.028 3.028 0 01-1.18-.23 2.835 2.835 0 01-.93-.61 2.924 2.924 0 01-.61-.9 2.969 2.969 0 01-.22-1.11v-.02a2.717 2.717 0 01.22-1.11 2.839 2.839 0 011.54-1.53 3.064 3.064 0 011.18-.23 3.028 3.028 0 011.18.23 2.835 2.835 0 01.93.61 2.924 2.924 0 01.61.9 2.969 2.969 0 01.22 1.11v.02a2.717 2.717 0 01-.22 1.11 2.839 2.839 0 01-1.54 1.53 3.064 3.064 0 01-1.18.23zm.01-1.13a1.639 1.639 0 00.67-.14 1.5 1.5 0 00.52-.37 1.64 1.64 0 00.34-.55 1.853 1.853 0 00.12-.67v-.02a1.853 1.853 0 00-.12-.67 1.569 1.569 0 00-.35-.55 1.835 1.835 0 00-.53-.38 1.7 1.7 0 00-1.35 0 1.5 1.5 0 00-.52.37 1.64 1.64 0 00-.34.55 1.853 1.853 0 00-.12.67v.02a1.853 1.853 0 00.12.67 1.569 1.569 0 00.35.55 1.835 1.835 0 00.53.38 1.535 1.535 0 00.68.14z"/></g><g id="Grupo_26" data-name="Grupo 26" fill="#009859"><path id="Caminho_130" data-name="Caminho 130" d="M45.46 56.1c3.49.96 7.31-1.83 8.52-6.24s-.65-8.77-4.13-9.75c-3.49-.96-7.31 1.84-8.52 6.25s.63 8.78 4.13 9.74z"/><path id="Caminho_131" data-name="Caminho 131" d="M60.81 48.5c7.86 3.58 15.89-8.44 9.16-19.35-12.69 1.68-16.89 15.51-9.16 19.35z"/><path id="Caminho_132" data-name="Caminho 132" d="M81.38 54.5c8.57.92 12.43-13.03 2.61-21.27-11.51 5.6-11.15 20.07-2.61 21.27z"/><path id="Caminho_133" data-name="Caminho 133" d="M70.81 52.18C65.22 50.56 44.54 58.26 40 73.93c-2.78 9.5 8.62 18.52 17.24 13.47a4.542 4.542 0 013.48-.38 4.483 4.483 0 012.68 2.14.9.9 0 01.11.22.379.379 0 01.06.13 11.768 11.768 0 0021.62-2.39c.05-.19.11-.4.15-.59C89.4 71 76.32 53.78 70.81 52.18z"/><path id="Caminho_134" data-name="Caminho 134" d="M95.13 53.32c-3.47-1.07-7.36 1.61-8.7 6-1.33 4.37.4 8.79 3.85 9.85 3.47 1.06 7.36-1.62 8.7-6s-.4-8.79-3.85-9.85z"/></g><g id="Grupo_30" data-name="Grupo 30"><g id="Grupo_28" data-name="Grupo 28"><g id="Grupo_27" data-name="Grupo 27" fill="#717171"><path id="Caminho_135" data-name="Caminho 135" d="M77.1 106.64a34.566 34.566 0 013.46-.47c1.26-.11 2.51-.17 3.76-.17a24.646 24.646 0 013.91.32 9.674 9.674 0 013.54 1.28 7.433 7.433 0 012.56 2.66 8.809 8.809 0 01.99 4.45 9.237 9.237 0 01-.86 4.18 7.953 7.953 0 01-2.28 2.8 9.41 9.41 0 01-3.24 1.58 14.205 14.205 0 01-3.76.49h-.6c-.28 0-.56-.01-.86-.02s-.59-.03-.88-.06a6.136 6.136 0 01-.62-.08v9.05H77.1zm7.63 3.79c-.5 0-.97.02-1.42.06s-.81.08-1.09.13v8.52a2.672 2.672 0 00.45.07c.2.03.41.04.64.06s.44.02.65.02h.47a10.344 10.344 0 002-.19 5.245 5.245 0 001.78-.69 3.651 3.651 0 001.25-1.41 5.156 5.156 0 00.47-2.36 4.2 4.2 0 00-.45-2.05 3.7 3.7 0 00-1.18-1.3 4.619 4.619 0 00-1.66-.68 10.057 10.057 0 00-1.91-.18z"/><path id="Caminho_136" data-name="Caminho 136" d="M96.82 106.38h15.53v4.58h-10.4v6.12h9.47v4.58h-9.47v6.42h10.59v4.58H96.82z"/><path id="Caminho_137" data-name="Caminho 137" d="M133.27 110.96h-7.63v21.69h-5.13v-21.69h-7.67v-4.58h20.43v4.58z"/></g></g><g id="Grupo_29" data-name="Grupo 29" fill="#020203"><path id="Caminho_138" data-name="Caminho 138" d="M16.91 121.81l.67 4.46h.19l.75-4.5 5.01-15.38h5.39l-9.72 26.44h-3.67l-9.8-26.44h5.95z"/><path id="Caminho_139" data-name="Caminho 139" d="M30.08 106.39h5.12v26.26h-5.12v-26.26z"/><path id="Caminho_140" data-name="Caminho 140" d="M53.39 132.65H37.24v-26.26h5.12v21.68h11.03z"/><path id="Caminho_141" data-name="Caminho 141" d="M69.14 126.83H61.1l-1.98 5.81H54l9.43-26.44h3.78l9.43 26.44h-5.39zm-6.73-4.12h5.61l-1.94-5.85-.79-4.13h-.19l-.79 4.16z"/></g></g></g></svg>