<svg xmlns="http://www.w3.org/2000/svg" width="2303.364" height="2215.612" viewBox="0 0 2303.364 2215.612">
  <g id="logo-vila-pet" transform="translate(-355.509 -321.977)">
    <g id="Grupo_1" data-name="Grupo 1">
      <path id="Caminho_1" data-name="Caminho 1" d="M1054.5,2537.589a51.643,51.643,0,0,1-20.405-4.017,49.449,49.449,0,0,1-27-27.354,53.073,53.073,0,0,1-3.853-20.184v-.28a52.408,52.408,0,0,1,3.853-20.108,51.78,51.78,0,0,1,10.722-16.474,49.58,49.58,0,0,1,16.4-11.16,53.427,53.427,0,0,1,21.141-4.093,66,66,0,0,1,12.775,1.144,52.413,52.413,0,0,1,10.494,3.153,45.839,45.839,0,0,1,8.694,4.855,59.311,59.311,0,0,1,7.427,6.3l-13.992,16.193a52.778,52.778,0,0,0-11.913-8.313,30.21,30.21,0,0,0-13.637-3,27.746,27.746,0,0,0-11.635,2.44,27.265,27.265,0,0,0-9.2,6.711,31.869,31.869,0,0,0-6.008,9.966,34.034,34.034,0,0,0-2.129,12.1v.28a34.768,34.768,0,0,0,2.129,12.177,32.612,32.612,0,0,0,5.932,10.016,27.7,27.7,0,0,0,9.15,6.788,27.194,27.194,0,0,0,11.762,2.516c5.728,0,10.544-1.042,14.5-3.152a56.308,56.308,0,0,0,11.786-8.592l13.992,14.185a72.425,72.425,0,0,1-8.009,7.423,46.609,46.609,0,0,1-19.849,9.254A64.49,64.49,0,0,1,1054.5,2537.589Z" fill="#fff"/>
      <path id="Caminho_2" data-name="Caminho 2" d="M1113.031,2435.648h45.7q18.972,0,29.124,10.143c5.7,5.746,8.543,13.372,8.543,22.931V2469q0,12.165-5.906,19.829a34.423,34.423,0,0,1-15.488,11.236l24.41,35.794h-25.7l-21.419-32.082h-17.262v32.082h-22Zm44.258,48.657q8.136,0,12.5-3.839a12.957,12.957,0,0,0,4.36-10.245v-.3q0-7.092-4.562-10.677-4.6-3.546-12.725-3.559h-21.825V2484.3Z" fill="#fff"/>
      <path id="Caminho_3" data-name="Caminho 3" d="M1216.248,2435.648h75.233v19.6h-53.535v20.337h47.1v19.626h-47.1v21.024h54.245v19.625h-75.943Z" fill="#fff"/>
      <path id="Caminho_4" data-name="Caminho 4" d="M1311.886,2435.648h23.675l26.235,42.378,26.21-42.378h23.675V2535.86h-21.7v-65.435l-28.06,42.81h-.558l-27.781-42.378v65h-21.7Z" fill="#fff"/>
      <path id="Caminho_5" data-name="Caminho 5" d="M1470.083,2434.911h20.278l42.813,100.949h-22.991l-9.125-22.473H1458.8l-9.151,22.473h-22.408Zm23.117,59-13.282-32.514-13.257,32.514Z" fill="#fff"/>
      <path id="Caminho_6" data-name="Caminho 6" d="M1571.855,2455.96h-30.418v-20.312h82.812v20.312h-30.418v79.9h-21.976Z" fill="#fff"/>
      <path id="Caminho_7" data-name="Caminho 7" d="M1685.363,2537.589a54.317,54.317,0,0,1-21.267-4.093,52.408,52.408,0,0,1-16.781-11.033,49.561,49.561,0,0,1-11-16.321,51.623,51.623,0,0,1-3.929-20.108v-.28a50.673,50.673,0,0,1,4.005-20.108,51.235,51.235,0,0,1,27.909-27.634,54.879,54.879,0,0,1,21.343-4.093,54.315,54.315,0,0,1,21.266,4.093,52.747,52.747,0,0,1,16.781,11.008,49.153,49.153,0,0,1,11,16.32,51.737,51.737,0,0,1,3.929,20.134v.28a50.859,50.859,0,0,1-4.005,20.109,52.272,52.272,0,0,1-11.052,16.473,51.562,51.562,0,0,1-16.856,11.16A54.886,54.886,0,0,1,1685.363,2537.589Zm.279-20.338a29.863,29.863,0,0,0,12.141-2.44,27.677,27.677,0,0,0,9.48-6.737,31.669,31.669,0,0,0,6.16-9.94,32.984,32.984,0,0,0,2.205-12.1v-.28a33.592,33.592,0,0,0-2.205-12.177,30.118,30.118,0,0,0-15.919-16.829,31.316,31.316,0,0,0-24.359-.051,27.819,27.819,0,0,0-9.4,6.711,31.271,31.271,0,0,0-6.134,9.966,32.467,32.467,0,0,0-2.231,12.1v.28a33.161,33.161,0,0,0,2.231,12.177,29.956,29.956,0,0,0,15.842,16.8A28.9,28.9,0,0,0,1685.642,2517.251Zm8.288-113.405,18.707,8.16-19.416,14.338h-16.578Z" fill="#fff"/>
      <path id="Caminho_8" data-name="Caminho 8" d="M1758.162,2435.648h45.677q19.011,0,29.125,10.143c5.728,5.746,8.567,13.372,8.567,22.931V2469q0,12.165-5.931,19.829a34.145,34.145,0,0,1-15.488,11.236l24.41,35.794h-25.677l-21.419-32.082h-17.287v32.082h-21.977Zm44.258,48.657q8.136,0,12.5-3.839a13.037,13.037,0,0,0,4.36-10.245v-.3c0-4.728-1.546-8.287-4.588-10.677q-4.563-3.546-12.7-3.559h-21.85V2484.3Z" fill="#fff"/>
      <path id="Caminho_9" data-name="Caminho 9" d="M1862.393,2435.648h21.976V2535.86h-21.976Z" fill="#fff"/>
      <path id="Caminho_10" data-name="Caminho 10" d="M1957.879,2537.589a54.316,54.316,0,0,1-21.267-4.093,52.4,52.4,0,0,1-16.781-11.033,49.542,49.542,0,0,1-11-16.321,51.605,51.605,0,0,1-3.929-20.108v-.28a50.673,50.673,0,0,1,4.005-20.108,51.237,51.237,0,0,1,27.908-27.634,54.886,54.886,0,0,1,21.343-4.093,54.316,54.316,0,0,1,21.267,4.093,52.758,52.758,0,0,1,16.781,11.008,49.171,49.171,0,0,1,11,16.32,51.757,51.757,0,0,1,3.929,20.134v.28a50.859,50.859,0,0,1-4.005,20.109,52.272,52.272,0,0,1-11.052,16.473,51.556,51.556,0,0,1-16.857,11.16A54.877,54.877,0,0,1,1957.879,2537.589Zm.278-20.338a29.864,29.864,0,0,0,12.142-2.44,27.679,27.679,0,0,0,9.48-6.737,31.671,31.671,0,0,0,6.16-9.94,32.981,32.981,0,0,0,2.205-12.1v-.28a33.589,33.589,0,0,0-2.205-12.177,30.127,30.127,0,0,0-15.919-16.829,31.316,31.316,0,0,0-24.359-.051,27.819,27.819,0,0,0-9.4,6.711,31.271,31.271,0,0,0-6.134,9.966,32.467,32.467,0,0,0-2.231,12.1v.28a33.161,33.161,0,0,0,2.231,12.177,29.947,29.947,0,0,0,15.842,16.8A28.9,28.9,0,0,0,1958.157,2517.251Z" fill="#fff"/>
    </g>
    <g id="Grupo_2" data-name="Grupo 2">
      <path id="Caminho_11" data-name="Caminho 11" d="M1072.989,808.641c63.1,17.324,131.965-33.029,153.844-112.715,21.649-79.687-11.745-158.449-74.618-176-63.1-17.323-131.965,33.26-153.844,112.947S1009.886,791.318,1072.989,808.641Z" fill="#008845"/>
      <path id="Caminho_12" data-name="Caminho 12" d="M1350.277,671.442c141.869,64.673,286.961-152.443,165.36-349.465C1286.483,352.235,1210.712,602.15,1350.277,671.442Z" fill="#008845"/>
      <path id="Caminho_13" data-name="Caminho 13" d="M1721.76,779.77c154.766,16.629,224.547-235.364,47.213-384.112C1561.007,496.825,1567.456,758.058,1721.76,779.77Z" fill="#008845"/>
      <path id="Caminho_14" data-name="Caminho 14" d="M1530.837,737.963c-100.874-29.334-474.429,109.713-556.418,392.658-50.207,171.614,155.686,334.451,311.373,243.215a82.026,82.026,0,0,1,62.874-6.928,80.716,80.716,0,0,1,48.363,38.572,21.805,21.805,0,0,1,2.072,3.928,10.77,10.77,0,0,1,1.153,2.309c26.484,47.58,70.7,85.461,127.128,101.86,112.619,32.8,230.305-32.1,263.239-145.052.922-3.466,2.073-7.161,2.765-10.626C1866.623,1077.726,1630.329,766.835,1530.837,737.963Z" fill="#008845"/>
      <path id="Caminho_15" data-name="Caminho 15" d="M1970.03,758.52c-62.644-19.4-132.887,29.1-157.069,108.328-23.951,78.993,7.139,158.679,69.553,177.849,62.642,19.172,132.885-29.333,157.068-108.327C2063.534,857.377,2032.441,777.69,1970.03,758.52Z" fill="#008845"/>
    </g>
    <g id="Grupo_6" data-name="Grupo 6">
      <g id="Grupo_4" data-name="Grupo 4">
        <g id="Grupo_3" data-name="Grupo 3">
          <path id="Caminho_16" data-name="Caminho 16" d="M1644.448,1811.4q28.364-5.415,62.508-8.465,34.105-3.051,67.932-3.051a440.194,440.194,0,0,1,70.62,5.771q35.473,5.758,63.851,23.032,28.4,17.274,46.311,48.123,17.869,30.849,17.895,80.332,0,44.73-15.538,75.554-15.55,30.849-41.216,50.512a165.9,165.9,0,0,1-58.477,28.447,259.423,259.423,0,0,1-67.908,8.821H1779.6c-4.968,0-10.139-.1-15.538-.33s-10.723-.559-15.894-1.017-8.9-.915-11.153-1.373v163.36h-92.57Zm137.867,68.461c-9.024,0-17.566.33-25.677,1.017s-14.651,1.474-19.62,2.364v153.877a74.264,74.264,0,0,0,8.112,1.347c3.6.458,7.452.788,11.508,1.017s7.984.331,11.812.331h8.466a193.871,193.871,0,0,0,36.146-3.381,89.145,89.145,0,0,0,32.091-12.533q14.22-9.153,22.661-25.422t8.441-42.708q0-22.346-8.112-36.938a66.381,66.381,0,0,0-21.292-23.388,82.946,82.946,0,0,0-30.063-12.2A176.728,176.728,0,0,0,1782.315,1879.865Z" fill="#fff"/>
          <path id="Caminho_17" data-name="Caminho 17" d="M2000.612,1806.676h280.475v82.671H2093.182v110.482h171v82.7h-171v115.9h191.276v82.7H2000.612Z" fill="#fff"/>
          <path id="Caminho_18" data-name="Caminho 18" d="M2658.873,1889.347H2521V2281.12h-92.6V1889.347H2289.857v-82.671h369.016Z" fill="#fff"/>
        </g>
      </g>
      <g id="Grupo_5" data-name="Grupo 5">
        <path id="Caminho_19" data-name="Caminho 19" d="M557.47,2085.339l12.156,80.611h3.379l13.508-81.289,90.514-277.745H774.29L598.673,2284.5H532.479l-176.97-477.582h107.4Z" fill="#fff"/>
        <path id="Caminho_20" data-name="Caminho 20" d="M795.224,1806.916h92.537V2281.11H795.224Z" fill="#fff"/>
        <path id="Caminho_21" data-name="Caminho 21" d="M1216.31,2281.11h-291.7V1806.916h92.533v391.549h199.17Z" fill="#fff"/>
        <path id="Caminho_22" data-name="Caminho 22" d="M1500.663,2176.108H1355.435l-35.792,105H1227.1l170.215-477.583h68.222l170.215,477.583H1538.49ZM1379.079,2101.6H1480.4l-35.125-105.679L1431.09,1921.4h-3.379l-14.183,75.2Z" fill="#fff"/>
      </g>
    </g>
  </g>
</svg>
